<?xml version="1.0" encoding="utf-8"?>
<!-- Generator: Adobe Illustrator 25.2.1, SVG Export Plug-In . SVG Version: 6.00 Build 0)  -->
<svg version="1.1" xmlns="http://www.w3.org/2000/svg" xmlns:xlink="http://www.w3.org/1999/xlink" x="0px" y="0px"
	 viewBox="0 0 500 500" width="512" height="512" style="enable-background:new 0 0 500 500;" xml:space="preserve">
<style type="text/css">
	.st0{display:none;}
	.st1{display:inline;}
	.st2{fill:#010202;}
	.st3{display:inline;fill:#010202;}
	.st4{display:inline;fill:none;stroke:#010202;stroke-miterlimit:10;}
	.st5{display:inline;fill:#FFFFFF;}
	.st6{fill:#FFFFFF;}
</style>
<g id="Layer_1" class="st0">
	<g class="st1">
		<path class="st2" d="M254.1,31.4c-0.1,7.6-1.2,15.1-3.1,22.4c-1.9,7.3-4.8,14.4-8.9,20.8c-4.1,6.4-9.3,12.2-15.7,16.5
			c-6.4,4.3-14.1,6.9-21.9,7.1c-7.9,0.2-15.8-2.2-22.5-6.3c-6.7-4.1-12.3-9.9-16.8-16.3c-4.4-6.5-7.6-13.7-9.8-21.1
			c-2.1-7.5-3.2-15.3-3.3-23.1c0-7.8,0.9-15.6,3-23.1c2.1-7.5,5.3-14.8,9.6-21.4c4.4-6.6,10-12.4,16.8-16.7
			c6.8-4.2,14.9-6.7,22.9-6.5c4,0.1,8,0.8,11.8,2.1c3.8,1.3,7.4,3.1,10.6,5.2c6.5,4.4,11.8,10.3,15.9,16.8c4.1,6.5,7,13.7,8.9,21
			C253.4,16.2,254.2,23.8,254.1,31.4z M252.8,31.4c-0.2-7.4-1.3-14.9-3.4-22c-2.1-7.1-5.2-13.9-9.4-19.9c-4.2-6-9.4-11.2-15.5-15
			c-6.1-3.7-13.1-5.7-20.1-5.5c-7,0.2-13.8,2.5-19.6,6.3c-5.8,3.9-10.7,9.2-14.6,15.1c-3.9,6-6.7,12.6-8.7,19.5
			c-1.9,6.9-2.9,14.1-2.9,21.4c0,7.2,0.8,14.5,2.6,21.4c1.8,7,4.6,13.7,8.4,19.8c3.8,6.1,8.7,11.5,14.6,15.5
			c5.9,4,12.9,6.4,20.1,6.6c7.2,0.2,14.4-1.9,20.6-5.7c6.2-3.8,11.5-9.2,15.7-15.3c4.2-6.1,7.3-13,9.4-20.1
			C252.1,46.3,252.9,38.8,252.8,31.4z"/>
	</g>
	<g class="st1">
		<path class="st2" d="M362.9,31.4c-0.2,7.8-1.3,15.5-3.5,23c-2.2,7.4-5.5,14.6-9.9,21c-4.4,6.4-10,12.1-16.7,16.1
			c-6.7,4.1-14.5,6.3-22.3,6.2c-7.8-0.2-15.4-2.8-21.7-7c-6.4-4.3-11.6-9.9-15.7-16.3C269,68.1,266,61,264,53.8
			c-2-7.3-3-14.8-3-22.4c0-7.5,0.9-15.1,2.8-22.4c2-7.3,4.9-14.4,9-20.9c4.1-6.4,9.3-12.2,15.8-16.6c6.4-4.3,14.1-7,22.1-7.2
			c7.9-0.2,15.9,2.2,22.6,6.3c6.8,4.2,12.4,9.9,16.8,16.4C358.8,0,363.3,15.8,362.9,31.4z M356.3,31.4c-0.1-3.6-0.4-7.2-0.8-10.8
			c-0.5-3.6-1.1-7.1-2-10.6c-1.8-7-4.5-13.7-8.4-19.7c-3.8-6.1-8.7-11.4-14.6-15.4c-5.9-4-12.8-6.4-19.9-6.5
			c-7.1-0.2-14.3,1.9-20.5,5.7c-6.2,3.8-11.5,9.1-15.6,15.2c-4.2,6.1-7.3,12.9-9.3,20.1c-2,7.2-3.1,14.6-3.1,22.1
			c0,7.4,0.9,14.9,2.9,22.1c2,7.2,5,14.1,9.2,20.3c4.1,6.1,9.4,11.6,15.7,15.5c3.1,1.9,6.5,3.4,10,4.4c3.5,1,7.1,1.5,10.8,1.4
			c7.3-0.2,14.3-2.6,20.3-6.7c6-4.1,10.9-9.5,14.7-15.7c3.8-6.1,6.6-12.9,8.4-19.9C355.6,45.8,356.4,38.6,356.3,31.4z"/>
	</g>
	<path class="st3" d="M239.6-69.9c-0.1-10.1-5.4-19.9-13.6-25.7c-8.2-5.8-19.3-7.3-28.8-4.1c19.2-6.9,42.5-0.2,55.1,15.9
		c2.9-8.8,8.7-16.6,16.4-21.9c-2.9,6.9-4.2,14.5-3.6,22c5-4.3,10.6-7.8,16.6-10.4c-4,4.8-6,11.2-5.3,17.4"/>
	<path class="st4" d="M260,124.1"/>
	<g class="st1">
		<path class="st2" d="M371.4-55.5c-1.2,13.7-1.4,27.4-0.5,41.1c0.9,13.7,2.9,27.3,5.8,40.7c3,13.4,7,26.6,11.9,39.4
			c5,12.8,10.8,25.3,17.8,37.1l1.5,2.5l-2.3-1.7l-8.2-5.9l-8.2-5.9l1.3-0.7c0.3,7.2,2,14.2,4.8,20.8c1.4,3.3,3.2,6.4,5.2,9.3
			c2,2.9,4.2,5.7,6.8,8.2l5.2,5.2l-6.7-2.9c-3.7-1.6-7.7-2.6-11.7-3c-2-0.2-4-0.2-6.1-0.2c-2,0.1-4.1,0.3-6.1,0.6l0.4-1.8
			c3.3,3.1,6.3,6.5,9.1,10c2.8,3.5,5.2,7.3,7.4,11.3c2.1,4,4,8.1,5.4,12.3c1.5,4.2,2.5,8.6,3.3,13.1l0.4,2.4l-1.5-1.9
			c-2.3-3-5.5-5.1-8.8-7.1c-3.3-1.9-6.7-3.6-10.1-5.3c-3.4-1.7-6.9-3.3-10.4-4.7c-3.5-1.5-7.1-2.9-10.7-4.1l1.5-2.4
			c3.5,3.9,6.8,8.1,9.8,12.3c1.5,2.1,3,4.3,4.4,6.5c1.4,2.2,2.8,4.4,4.2,6.6l1.9,3.2l-2.7-2.5c-2.9-2.7-5.8-5.3-9.1-7.4
			c-3.2-2.2-6.7-3.9-10.4-4.8c-3.6-0.9-7.4-1.1-10.8-0.3c-0.9,0.2-1.7,0.4-2.6,0.8c-0.9,0.3-1.9,0.7-2.9,0.9c-1,0.3-2.2,0.5-3.5,0.5
			c-1.3,0-2.8-0.5-3.9-1.3l2.9-2.5c1.2,2.2,2.3,4.4,3.4,6.6c1.1,2.2,2.2,4.4,3.3,6.6l6.5,13.3l-1.8,1.2c-3.1-4.2-6.2-8.3-9.4-12.4
			c-1.6-2-3.1-4.3-5.1-5.6c-1-0.7-2.2-1-3.4-0.8c-1.2,0.2-2.3,0.8-3.3,1.5c-4,3.1-8.1,6.5-11.1,10.5c-1.5,2-2.7,4.3-3.3,6.6
			c-0.7,2.3-0.8,4.8-0.3,7.1l2.1,9.3l-4.7-8.5c-2.8-5-5.5-10-8.2-15l3,0.8c-0.2,0.1-0.4,0.2-0.6,0.3c-0.1,0.1-0.2,0.1-0.2,0.1
			l-0.2,0l-0.4,0.1l-0.3,0c-0.4,0.1-0.7,0.1-1,0.1c-0.6,0-1.2,0.1-1.8,0.1c-1.1,0-2.3,0-3.4,0c-2.2-0.1-4.4-0.2-6.6-0.3
			c-2.2-0.1-4.4-0.3-6.5-0.4l-3.2-0.1c-0.5,0-1,0-1.5,0c-0.2,0-0.5,0-0.6,0l-0.1,0c0,0,0,0,0,0l0,0l0,0l0.1,0c0.1,0,0.2-0.1,0.3-0.2
			l-2.5,0.1l-0.4-0.2l2.4-4c3.4,2,5.9,5.1,7.3,8.6c1.4,3.5,1.7,7.5,0.7,11.2l-1.1,3.6l-2.3-2.8c-1.9-2.3-4.4-4.2-7.2-5.6
			c-2.8-1.4-5.9-2.2-9.1-2.4c-1.6-0.2-3.2-0.1-4.9-0.1c-1.7,0-3.4,0.1-5.2-0.3c-0.9-0.2-1.8-0.5-2.6-1c-0.8-0.5-1.5-1-2.1-1.7
			c-0.6-0.7-1.1-1.5-1.4-2.4c-0.3-0.9-0.3-1.9,0-2.8l1.2,0.5c-2.1,3.7-4.2,7.4-6.2,11.1c-2.1,3.7-4,7.5-5.9,11.3l-1.3,2.6l0-3
			c0-3.8-0.1-7.6-0.3-11.4l-0.1-2.9c0-0.4-0.1-0.8-0.1-0.8c-0.1,0,0.1,0.3,0.3,0.3l-4.1,2.3c-6.6,3.7-13.5,7.1-20.3,10.3l-1.5-4.6
			c1.7-0.3,3.4-1,4.8-2.1c1.5-1.1,2.8-2.4,3.8-4c1-1.6,1.7-3.3,2.1-5.1c0.3-1.8,0.3-3.8-0.3-5.4c-0.6-1.7-1.7-3.4-3-4.9
			c-1.3-1.5-2.9-2.8-4.6-3.9c-1.7-1.1-3.6-2-5.5-2.7c-1.9-0.7-4-0.9-6-0.7l-0.1,0l-0.1,0c-4.4-1.4-9.1-1.8-13.8-1.5
			c-4.6,0.4-9.2,1.5-13.4,3.4c-8.5,3.7-15.7,10.2-20.1,18.1l-2.6,4.7l0.2-5.4l0.7-17.2l0.7-17.2l2.4,1.1
			c-5.3,5.1-10.7,10.1-16.1,15.1c-2.7,2.5-5.4,5-8.1,7.5l-8.3,7.3l-1.7,1.5l0.4-2.2c0.5-3.2,1.2-6.3,2-9.4c0.8-3.1,1.6-6.2,2.7-9.2
			c2-6.1,4.5-12,7.6-17.7l0.6,1.2c-5.2-0.4-10.3-0.3-15.5,0.3c-5.1,0.5-10.2,1.6-15.2,3.1c-9.9,3-19.2,7.9-27.2,14.4l-1.4-1.4
			c11.1-13.3,19.5-28.7,25.5-45c6-16.3,9.8-33.4,11.7-50.6c2-17.3,2.2-34.7,1.7-52.1c-0.5-17.4-1.9-34.8-3.2-52.2l1-0.1
			c1.5,17.4,3,34.7,3.6,52.2c0.7,17.4,0.4,35-1.5,52.3c-1.9,17.4-5.6,34.6-11.7,51.1c-6,16.4-14.5,32.1-25.7,45.6l-1.4-1.4
			c8.2-6.8,17.7-11.8,27.8-14.9c5.1-1.5,10.3-2.6,15.6-3.2c5.3-0.5,10.6-0.5,15.9,0.1l1.3,0.2l-0.7,1.1c-3.3,5.4-6.1,11.1-8.1,17.1
			c-1,3-1.9,6.1-2.6,9.2c-0.7,3.1-1.1,6.2-1.4,9.4l-1.3-0.7l7.7-7.9c2.6-2.6,5.2-5.2,7.9-7.7c5.3-5.1,10.6-10.2,15.9-15.3l2.6-2.5
			l-0.2,3.6l-0.8,17.2l-0.9,17.2l-2.4-0.7c2.4-4.2,5.6-7.9,9.4-11c3.7-3,8-5.4,12.4-7.2c4.5-1.7,9.1-2.8,13.9-3.1
			c4.7-0.3,9.5,0.1,14.2,1.3l-0.3,0c2.2-0.4,4.5-0.1,6.6,0.4c2.1,0.6,4.2,1.4,6.1,2.5c1.9,1.1,3.8,2.3,5.4,3.8
			c1.6,1.5,3.1,3.3,4.1,5.5c2,4.5,1.3,9.7-1,13.9c-1.1,2.1-2.7,4-4.6,5.5c-1.9,1.5-4.2,2.7-6.6,3.2l-18.5,3.9l17-8.5
			c6.8-3.4,13.6-6.7,20.7-9.6l2.6-1.1l1.4-0.6c0.6-0.2,1.3-0.5,2.3-0.3c0.5,0.1,1.1,0.3,1.5,0.7c0.4,0.4,0.7,0.9,0.8,1.3
			c0.2,0.8,0.2,1.5,0.1,2l-0.3,2.8c-0.4,3.8-0.7,7.6-1,11.4l-1.3-0.4c2.2-3.6,4.3-7.3,6.3-11.1c2-3.7,4.1-7.5,6-11.2l1.2,0.5
			c-0.4,1.3,0.2,2.8,1.2,3.9c0.5,0.5,1.1,1,1.8,1.3c0.7,0.3,1.4,0.5,2.1,0.6c3,0.5,6.3-0.4,9.8-0.3c3.5,0.1,6.9,0.7,10.2,2
			c3.3,1.3,6.4,3.3,8.8,6l-3.3,0.8c0.6-2.8,0.2-5.8-1-8.5c-1.2-2.6-3.2-4.9-5.6-6.3l2.4-4l0.4,0.2l-2.5,0.1c0.2-0.1,0.4-0.2,0.7-0.3
			l0.2-0.1l0.1,0l0.2,0l0.4-0.1l0.3,0c0.4-0.1,0.7-0.1,1-0.1c0.6,0,1.2,0,1.8,0c1.1,0,2.3,0,3.4,0.1c2.2,0.1,4.4,0.3,6.6,0.5
			l6.5,0.5c1.1,0.1,2.1,0.1,3.2,0.2c0.5,0,1,0,1.5,0c0.2,0,0.5,0,0.6,0l0.1,0c0,0,0,0,0,0l0,0c0,0,0,0,0,0c-0.1,0-0.2,0.1-0.2,0.1
			l3,0.8c2.4,5.2,4.7,10.4,7,15.6l-2.6,0.9c-0.4-2.8,0.1-5.7,1-8.2c1-2.6,2.4-4.9,4.1-6.9c1.7-2.1,3.6-3.9,5.6-5.5
			c1-0.8,2-1.7,3-2.5c1-0.8,2-1.6,3.1-2.4c1.1-0.7,2.3-1.4,3.7-1.6c1.4-0.2,2.9,0.2,4.1,0.9c1.2,0.7,2.1,1.7,3,2.7l2.5,3
			c3.3,4,6.7,7.9,10.1,11.8l-1.8,1.2l-7.5-12.7c-1.2-2.1-2.5-4.3-3.7-6.4c-1.2-2.1-2.5-4.3-3.6-6.4l-3.9-7.2l6.8,4.7
			c0.4,0.3,0.9,0.5,1.6,0.5c0.7,0,1.5-0.1,2.3-0.4c0.8-0.2,1.7-0.6,2.7-0.9c0.9-0.3,2-0.6,3.1-0.8c4.3-0.7,8.6,0,12.4,1.6
			c3.8,1.5,7.2,3.9,10.3,6.3c3.1,2.5,6,5.2,9,7.8l-0.8,0.7c-1.4-2.2-2.8-4.4-4.3-6.5c-1.5-2.1-3.1-4.2-4.7-6.2
			c-3.3-4-6.9-7.8-10.6-11.3l-4-3.8l5.5,1.4c3.8,1,7.5,2.2,11.2,3.6c3.7,1.4,7.3,2.9,10.8,4.7c3.5,1.8,6.9,3.9,10,6.4
			c3.1,2.5,6,5.3,8.2,8.6l-1.1,0.4c-0.4-4.4-1.4-8.8-2.7-13c-1.4-4.2-3.1-8.4-5.3-12.2c-2.2-3.9-4.7-7.6-7.6-11
			c-2.8-3.4-6.1-6.5-9.7-9.1l-1.6-1.2l2-0.6c2.1-0.6,4.2-1,6.4-1.3c2.2-0.2,4.3-0.2,6.5,0c4.3,0.4,8.6,1.5,12.6,3.3l-1.6,2.2
			c-2.6-2.7-4.9-5.6-6.9-8.7c-2-3.1-3.7-6.4-5.1-9.9c-2.8-6.9-4.3-14.2-4.4-21.6l0-1.7l1.3,1l8,6.1l8.1,6.1l-0.9,0.8
			c-6.7-12-12.7-24.5-17.6-37.4C383,53.3,379,40,376.1,26.6c-3-13.4-5-27.1-5.9-40.8c-1-13.7-0.9-27.5,0.2-41.3L371.4-55.5z"/>
	</g>
	<path class="st3" d="M113.1,120.9c-1.6,5.3-8.7,7-13.9,8.8c5.8-8.5,9.4-18.5,10.3-28.7c-7.9,4.2-15.8,8.4-23.7,12.6
		c20.2-30.3,34-69.1,38.6-105.3C124.4,8.3,130.9,60.9,113.1,120.9z"/>
	<g class="st1">
		<path class="st2" d="M254,31.4l-0.2,4.4c-0.1,1.5-0.4,2.9-0.5,4.4c-0.4,2.9-1.1,5.8-2,8.6c-1.8,5.6-4.5,11-8.1,15.7
			c-3.6,4.7-8.2,8.8-13.4,11.6c-5.2,2.9-11.2,4.5-17.3,4.6c-6,0.1-12.1-1.5-17.4-4.3c-5.4-2.8-10-6.8-13.8-11.5
			c-7.5-9.5-11.3-21.6-11.3-33.5c0-12,3.8-24.1,11.3-33.6c3.7-4.7,8.4-8.8,13.8-11.6c5.4-2.8,11.4-4.3,17.5-4.3
			c6.1,0,12.1,1.7,17.3,4.6c5.3,2.9,9.8,6.9,13.5,11.7C250.5,7.6,254,19.6,254,31.4z M252.9,31.4c-0.2-11.6-3.9-23.1-11.1-32.1
			c-3.6-4.5-8-8.2-13.1-10.9c-5-2.6-10.7-4-16.3-4c-5.6,0.1-11.2,1.6-16.2,4.3c-4.9,2.7-9.2,6.5-12.7,11c-3.5,4.5-6.1,9.6-7.8,15
			c-1.7,5.4-2.6,11.1-2.7,16.7c0,5.7,0.9,11.4,2.6,16.8c1.7,5.4,4.4,10.5,7.8,15c3.4,4.5,7.8,8.3,12.7,11c4.9,2.7,10.5,4.2,16.2,4.3
			c5.7,0.1,11.3-1.4,16.4-4c5.1-2.6,9.5-6.4,13.1-10.9c3.6-4.5,6.3-9.6,8.2-15.1c1-2.7,1.6-5.6,2.1-8.4c0.2-1.4,0.4-2.9,0.5-4.3
			L252.9,31.4z"/>
	</g>
	<g class="st1">
		<path class="st2" d="M345.1,31.4c-0.2,12.1-4.1,24.1-11.7,33.6c-3.8,4.7-8.5,8.7-13.8,11.4c-5.4,2.8-11.4,4.2-17.4,4.2
			c-6-0.1-11.9-1.7-17.2-4.6c-5.2-2.9-9.7-6.9-13.4-11.5c-3.6-4.7-6.4-10-8.2-15.6c-1.8-5.6-2.7-11.5-2.8-17.4
			c0-5.9,0.9-11.8,2.7-17.4c1.8-5.6,4.6-11,8.2-15.7c3.6-4.7,8.1-8.8,13.4-11.6c5.2-2.9,11.2-4.5,17.3-4.6c6-0.1,12.1,1.4,17.5,4.2
			c5.4,2.8,10.1,6.8,13.9,11.5c3.8,4.7,6.7,10.1,8.6,15.8C344.2,19.3,345.2,25.3,345.1,31.4z M341.3,31.4
			c-0.1-5.6-0.9-11.3-2.6-16.7c-1.7-5.4-4.3-10.5-7.7-15c-3.4-4.5-7.7-8.3-12.6-11c-4.9-2.7-10.5-4.3-16.2-4.4
			c-5.7-0.1-11.3,1.3-16.4,3.9c-5.1,2.6-9.5,6.4-13.1,10.9c-3.6,4.5-6.3,9.7-8.1,15.1c-1.8,5.5-2.7,11.3-2.8,17.1
			c-0.1,11.6,3.7,23.2,10.8,32.3c3.6,4.5,8,8.4,13.1,11c5.1,2.6,10.8,4.1,16.5,4c5.7-0.1,11.3-1.7,16.3-4.4c5-2.7,9.2-6.6,12.7-11.1
			C338.1,54.1,341.4,42.7,341.3,31.4z"/>
	</g>
	<ellipse class="st3" cx="215.3" cy="34.3" rx="19.3" ry="18.7"/>
	<circle class="st5" cx="209.9" cy="26" r="4.3"/>
	
		<ellipse transform="matrix(0.8879 -0.4601 0.4601 0.8879 17.3968 139.9135)" class="st3" cx="295.7" cy="34.3" rx="18.7" ry="19.3"/>
	<circle class="st5" cx="300.6" cy="25.6" r="4.3"/>
	<path class="st3" d="M370.4-16.8c0,0,2,39.7,13.7,73.8c1.2,3.4,4.2,3.9,7.6,5c-1.4-2.6-1.9-5.6-1.6-8.5c4.9,2.7,9.7,5.4,14.6,8.2
		c-15.9-24.5-27.6-51.8-34.3-80.3"/>
	<g class="st1">
		<path class="st6" d="M239.4,45.1c-11.3,26.1-1,56.9,15.5,79c16.5-22.1,26-49.4,14.7-75.5L257.2,13L239.4,45.1z"/>
		<path class="st2" d="M240.6,45.7l-1.6,4.8l-1.2,5l-0.7,5.1c-0.1,1.7-0.2,3.4-0.3,5.1c-0.1,6.8,0.9,13.6,2.8,20.1
			c3.7,13.1,10.5,25.2,19,35.6h-7.4c4.1-5.1,7.8-10.4,10.9-16.1c3.1-5.7,5.7-11.6,7.4-17.8c1.7-6.2,2.6-12.6,2.4-19.1
			c-0.2-6.4-1.6-12.9-4-19l0-0.1l0,0l-11.2-36.1l0.9,0.1c-2.9,5.4-5.8,10.8-8.7,16.2c-1.4,2.7-2.8,5.4-4.2,8.1L240.6,45.7z
			 M238.2,44.5l4.7-7.9c1.6-2.6,3.2-5.3,4.7-7.9c3.1-5.3,6.2-10.6,9.2-15.9l0.5-0.9l0.4,1l13.6,35.3l-0.1-0.1c3,6.3,4.9,13.1,5.6,20
			c0.7,7,0.3,14.1-1.2,20.9c-1.4,6.9-3.7,13.5-6.7,19.9c-2.9,6.3-6.5,12.4-10.5,18.1l-3.7,5.3l-3.6-5.3c-4.1-6-7.7-12.4-10.6-19.1
			c-2.9-6.7-5.2-13.6-6.6-20.7c-1.4-7.1-2-14.4-1.4-21.7C233.2,58.2,235,51.1,238.2,44.5z"/>
	</g>
	<path class="st3" d="M275.6-84.2c27.7,6.3,58.2-2.2,78.7-21.8c-3,4.2-6,8.5-9.1,12.7c9.2,0.4,18.5-2.1,26.2-7.1
		c-1.3,1.5-2.6,3-3.9,4.5c36.2,2.2,73.1-11.1,99.6-36c-8.7,8.1-17.5,16.3-26.2,24.4c3.3-0.6,6.6-1.1,10-1.7
		c-7.6,10.6-18.1,19.1-30.1,24.2c3.7,2.3,7.5,4.6,11.2,6.8c-21.7-1.3-43,5-63.8,11.2c6.7,1,13.7-0.1,19.7-3.1
		c-24.3,17.4-60.9,9.2-84.4,27.7c3.3,0.1,6.5,0.2,9.8,0.3c-2.5,1.1-4.9,2.3-7.4,3.4c1.2,0.1,2.4,0.1,3.6,0.2c-0.5,0.7-1.1,1.4-1.6,2
		c-15.2,7-28.4,23.1-33.5,39c-5.2,16.3-3.3,34-1.4,51c-2.7-2.7-5.3-5.4-8-8c-0.7,1.3-1.4,2.6-2.1,3.9c-1.4-7.8-2.7-15.5-4.1-23.3
		c-6.1,9.9-10.1,21.1-11.4,32.6c-0.8-2.4-1.6-4.8-2.3-7.2c-0.9,2.1-1.8,4.2-2.7,6.2c0.1-4.9,0.3-9.8,0.4-14.6c-3,2.8-6,5.6-9,8.3
		c14.9-23.5,10.5-57.3-10-76.2s-54.5-20.6-76.8-3.9c0.8-2.3,1.6-4.6,2.4-6.9c-3.5,3.2-7,6.5-10.5,9.7c-1.1-4.3-0.4-9.1,1.8-12.9
		c-10.2,0.3-20.2,4.7-27.2,12.1c-4.7-7.9,1.8-18.7,10.5-21.7s18.2-0.3,26.8,3.1c-40.3-9.8-82-20.4-114-46.8
		c4.6-0.1,9.2-0.2,13.8-0.3c-9.3-6.3-18.6-12.6-27.9-18.9c6.3,2.2,12.7,4.3,19,6.5c-10.9-7.8-18.5-19.9-20.6-33.1
		C55-96.7,108.4-72.8,161.4-74.8c-4.9-0.5-9-5.1-8.9-10c28,6.8,57.2,8.7,85.8,5.6"/>
	<g class="st1">
		<path class="st2" d="M248.7,349.6c-0.1,3.3-0.6,6.5-1.4,9.6c-0.9,3.1-2.2,6.1-4,8.8c-1.8,2.7-4.1,5.1-6.9,6.9
			c-2.7,1.8-6,2.8-9.3,2.9c-3.3,0-6.6-1-9.4-2.7c-2.8-1.7-5.3-4.1-7.2-6.8c-3.9-5.4-5.9-12.1-6.2-18.8c-0.2-6.7,1.4-13.6,5.2-19.4
			c1.9-2.9,4.4-5.4,7.5-7.3c3-1.8,6.6-2.9,10.2-2.8c3.6,0.1,7,1.3,9.9,3.3c2.9,1.9,5.2,4.5,6.9,7.4
			C247.5,336.5,248.9,343.1,248.7,349.6z M247.5,349.6c-0.2-6.3-2-12.5-5.6-17.5c-1.8-2.5-4-4.7-6.5-6.2c-2.5-1.5-5.4-2.3-8.2-2.2
			c-2.8,0.1-5.6,1.1-7.9,2.7c-2.4,1.6-4.4,3.8-5.9,6.2c-3.2,4.9-4.8,10.9-5.1,17c-0.2,6,1,12.3,4.1,17.6c1.6,2.6,3.6,5,6.2,6.8
			c2.5,1.8,5.6,2.8,8.7,2.9c3.1,0.1,6.2-1,8.8-2.6c2.6-1.7,4.8-4,6.5-6.7C246,362.3,247.6,355.9,247.5,349.6z"/>
	</g>
	<g class="st1">
		<path class="st2" d="M295.7,349.6c-0.2,3.4-0.8,6.8-1.8,10c-1.1,3.2-2.6,6.2-4.6,8.9c-2,2.7-4.5,5-7.4,6.7
			c-0.4,0.2-0.7,0.4-1.1,0.6l-1.1,0.5c-0.7,0.4-1.6,0.6-2.3,0.8c-0.4,0.1-0.8,0.2-1.2,0.3l-1.2,0.2c-0.8,0.1-1.6,0.1-2.5,0.2
			c-3.3-0.1-6.5-1.2-9.3-2.9c-2.7-1.8-5-4.2-6.9-6.8c-1.8-2.7-3.1-5.7-4-8.8c-0.9-3.1-1.2-6.4-1.3-9.6c-0.1-6.5,1.4-13.1,4.8-18.7
			c1.7-2.8,4-5.4,6.8-7.3c2.8-1.9,6.2-3.1,9.7-3.2c3.5-0.1,7,1,10,2.8c3,1.8,5.5,4.3,7.4,7.1c2,2.8,3.4,6,4.4,9.2
			C295.2,342.8,295.8,346.2,295.7,349.6z M291,349.6c-0.2-3-0.4-6-1.1-8.9c-0.7-2.9-1.8-5.7-3.4-8.2c-1.6-2.5-3.6-4.8-6-6.4
			c-2.4-1.6-5.2-2.6-8.1-2.7c-2.9-0.1-5.8,0.8-8.4,2.3c-2.6,1.5-4.8,3.7-6.6,6.3c-3.5,5.1-5.3,11.4-5.5,17.7c0,3.2,0.5,6.3,1.3,9.3
			c0.8,3,2.1,6,3.8,8.6c1.7,2.6,3.9,5,6.5,6.7c2.6,1.7,5.7,2.6,8.8,2.6c3.1-0.1,6.1-1.2,8.6-2.9c2.5-1.8,4.5-4.2,6-6.8
			c1.5-2.6,2.5-5.5,3.2-8.5C290.9,355.7,291.1,352.6,291,349.6z"/>
	</g>
	<path class="st3" d="M242.2,306.4c-0.1-4.3-2.3-8.5-5.8-11c-3.5-2.5-8.2-3.1-12.3-1.7c8.2-2.9,18.1-0.1,23.5,6.8
		c1.2-3.7,3.7-7.1,7-9.3c-1.3,2.9-1.8,6.2-1.5,9.4c2.1-1.8,4.5-3.3,7.1-4.4c-1.7,2-2.5,4.8-2.3,7.4"/>
	<path class="st4" d="M250.9,389.2"/>
	<g class="st1">
		<path class="st2" d="M298.7,312.6c-0.6,5.8-0.6,11.7-0.3,17.5c0.4,5.8,1.2,11.6,2.5,17.3c1.3,5.7,3,11.3,5.1,16.7
			c2.1,5.4,4.6,10.7,7.6,15.7l1.4,2.3l-2.2-1.6c-2.3-1.7-4.7-3.3-7.1-4.9l1.3-0.7c0.2,3,0.9,5.9,2.2,8.6c0.6,1.3,1.4,2.6,2.2,3.8
			c0.8,1.2,1.8,2.3,2.8,3.4l5.3,5.2l-6.9-2.9c-1.5-0.6-3.1-1-4.7-1.2c-1.6-0.1-3.3-0.2-5-0.1l0.4-1.8c1.3,1.5,2.5,3,3.7,4.6
			c1.2,1.5,2.2,3.2,3.1,4.9c0.9,1.7,1.7,3.5,2.3,5.3c0.7,1.8,1.1,3.7,1.6,5.6l0.5,2.2l-1.6-1.8c-1-1.1-2.5-1.9-3.9-2.6
			c-1.4-0.7-2.9-1.2-4.3-1.9c-1.4-0.7-2.9-1.4-4.3-2c-1.5-0.6-2.9-1.3-4.4-1.9l1.5-2.4c1.4,1.8,2.7,3.6,4,5.5
			c1.2,1.9,2.4,3.8,3.5,5.7l1.8,3l-2.6-2.4c-1.2-1.1-2.5-2.3-3.9-3.1c-1.4-0.8-2.9-1.4-4.4-1.6c-1.5-0.2-2.9-0.1-4.1,0.2
			c-0.3,0.1-0.6,0.2-1,0.3c-0.4,0.1-0.8,0.3-1.3,0.4c-0.5,0.1-1.1,0.3-1.8,0.2c-0.7,0-1.6-0.3-2.3-0.8l2.9-2.5
			c0.9,1.9,1.8,3.8,2.7,5.7c0.9,1.9,1.7,3.9,2.5,5.8l-1.8,1.2c-1.2-1.8-2.5-3.7-3.8-5.5c-0.7-0.9-1.3-1.8-2.1-2.4
			c-0.4-0.3-0.8-0.4-1.2-0.3c-0.4,0.1-0.9,0.3-1.3,0.6c-1.7,1.3-3.4,2.8-4.5,4.5c-1.1,1.7-1.7,3.8-1.2,5.4l3.3,10.4l-5.9-9.5
			c-1.3-2.1-2.6-4.1-3.8-6.2l3,0.8c-0.2,0.1-0.4,0.2-0.7,0.3c-0.1,0-0.3,0.1-0.4,0.1l-0.1,0l-0.5,0.1c-0.3,0-0.6,0-0.8,0.1
			c-0.5,0-1,0-1.5,0c-1,0-1.9,0-2.8-0.1l-2.7-0.1l-1.3,0l-0.6,0c-0.1,0-0.1,0-0.1,0l0,0c0,0,0.2,0,0.2-0.1c0.2-0.1,0.3-0.1,0.4-0.2
			l-2.6,0.1l-0.2-0.1l2.4-4c1.7,1,3,2.6,3.6,4.4c0.7,1.7,0.8,3.7,0.2,5.5l-1.2,3.8l-2.1-3c-0.6-0.9-1.5-1.7-2.6-2.3
			c-1.1-0.6-2.3-1-3.5-1.2c-1.2-0.2-2.7,0-4.3-0.4c-0.4-0.1-0.8-0.3-1.2-0.5c-0.4-0.2-0.7-0.5-1-0.9c-0.6-0.7-0.9-1.7-0.6-2.6
			l1.2,0.5c-0.9,1.5-1.8,3.1-2.7,4.7c-0.9,1.6-1.7,3.2-2.4,4.9l-1.1,2.7l-0.2-3c-0.1-1.6-0.3-3.2-0.5-4.9l-0.1-1.2
			c0-0.1-0.1-0.2-0.1,0c0,0.1,0.1,0.3,0.3,0.5c0.2,0.2,0.4,0.3,0.6,0.3c0.4,0.1,0.4,0,0.4,0.1c0,0-0.1,0.1-0.2,0.1l-0.3,0.2l-1,0.7
			c-1.4,0.9-2.8,1.7-4.2,2.5c-1.4,0.7-2.9,1.4-4.4,2.1l-1.5-4.6c1-0.1,2.1-0.8,2.9-1.8c0.4-0.5,0.7-1.1,0.9-1.7
			c0.2-0.6,0.2-1.3,0.1-1.9c-0.3-1.3-1.4-2.7-2.7-3.6c-1.3-1-3-1.7-4.6-1.6l-0.2,0l-0.1,0c-3.7-1.2-7.9-0.8-11.4,0.9
			c-3.5,1.7-6.3,4.5-8.1,7.7l-2.5,4.7l0.1-5.4c0-2.4,0.1-4.9,0.2-7.3c0.1-2.4,0.2-4.9,0.3-7.3l2.4,1.1c-2.3,2.2-4.6,4.3-6.9,6.4
			c-1.2,1.1-2.3,2.1-3.5,3.1l-3.7,3l-1.8,1.4l0.5-2.1c0.3-1.4,0.6-2.7,1-4c0.4-1.3,0.7-2.7,1.2-4c0.8-2.6,1.8-5.2,3.1-7.7l0.6,1.2
			c-2.2-0.1-4.3,0-6.5,0.2c-2.1,0.2-4.3,0.7-6.4,1.3c-4.1,1.3-8,3.3-11.4,6l-1.4-1.4c4.7-5.6,8.2-12.1,10.8-19
			c2.5-6.9,4.2-14.1,5-21.4c0.9-7.3,1-14.7,0.8-22.1c-0.2-7.4-0.7-14.8-1.2-22.2l1-0.1c0.7,7.4,1.4,14.8,1.7,22.3
			c0.3,7.4,0.2,14.9-0.6,22.4c-0.8,7.4-2.3,14.8-4.9,21.9c-2.6,7.1-6.2,13.8-11.1,19.6L176,407c3.5-2.9,7.7-5.1,12.1-6.5
			c2.2-0.7,4.5-1.1,6.7-1.4c2.3-0.2,4.6-0.2,6.9,0.2l1.3,0.2l-0.7,1.1c-1.4,2.2-2.7,4.6-3.6,7.2c-0.4,1.3-0.8,2.6-1.1,3.9
			c-0.3,1.3-0.4,2.7-0.5,4l-1.3-0.7l3.1-3.5c1.1-1.2,2.2-2.3,3.3-3.4c2.2-2.2,4.5-4.4,6.7-6.5l2.6-2.4l-0.1,3.5
			c-0.1,2.4-0.2,4.9-0.4,7.3c-0.2,2.4-0.3,4.9-0.4,7.3l-2.4-0.7c1.1-1.9,2.6-3.5,4.3-4.8c1.7-1.3,3.6-2.3,5.5-3
			c3.9-1.4,8.2-1.7,12.2-0.7l-0.2,0c2-0.4,4,0.3,5.7,1.1c0.9,0.4,1.7,0.9,2.5,1.6c0.8,0.7,1.5,1.4,2.1,2.5c1.1,2.2,0.9,4.7-0.2,6.8
			c-1,2.1-3,3.9-5.5,4.5l-18.3,4.3l16.8-8.9c1.4-0.8,2.9-1.5,4.4-2.1c1.5-0.7,3-1.2,4.5-1.8l1.2-0.4l0.7-0.2
			c0.3-0.1,0.8-0.3,1.5-0.2c0.4,0.1,0.8,0.3,1.1,0.6c0.3,0.3,0.5,0.7,0.6,1c0.2,0.6,0.1,0.9,0.1,1.2l-0.2,1.2
			c-0.3,1.6-0.6,3.2-0.8,4.8l-1.3-0.4c1-1.5,1.9-3.1,2.8-4.7c0.9-1.6,1.7-3.2,2.5-4.8l2.6-5.4l-1.5,5.9c-0.1,0.4,0.1,0.9,0.5,1.3
			c0.2,0.2,0.4,0.3,0.7,0.4c0.2,0.1,0.5,0.2,0.8,0.2c1.1,0.1,2.5-0.3,4.1-0.3c1.6,0,3.1,0.2,4.7,0.7c1.5,0.5,3,1.4,4.3,2.7l-3.3,0.8
			c0.1-1-0.1-2-0.5-2.8c-0.4-0.9-1.1-1.6-1.9-2l2.4-4l0.2,0.1l-2.6,0.1c0.2-0.1,0.5-0.3,0.8-0.4c0.1,0,0.3-0.1,0.4-0.1l0.1,0
			l0.6-0.1c0.3,0,0.6,0,0.8,0c0.5,0,1,0,1.5,0c1,0.1,1.9,0.1,2.8,0.2l2.7,0.3l1.3,0.1l0.6,0c0.1,0,0.1,0,0.1,0l0,0c0,0-0.1,0-0.2,0
			c-0.1,0-0.3,0.1-0.4,0.2l3,0.8c0.9,2.3,1.8,4.5,2.7,6.8l-2.6,0.9c-0.1-1.4,0.2-2.7,0.6-3.8c0.5-1.2,1.2-2.2,2-3
			c1.6-1.8,3.4-3,5.2-4.4c0.5-0.3,1.1-0.6,1.7-0.7c0.7-0.1,1.4,0.1,1.9,0.4c1.1,0.7,1.7,1.7,2.5,2.5c1.5,1.7,3,3.3,4.5,4.9l-1.8,1.2
			c-1.2-1.8-2.3-3.5-3.5-5.3c-1.2-1.8-2.3-3.6-3.3-5.4l2.9-2.5c0,0-0.1-0.1,0,0c0.1,0,0.4,0,0.7-0.1l1.1-0.3c0.4-0.1,1-0.3,1.5-0.4
			c2.1-0.3,4.1,0.2,5.8,1c1.7,0.8,3.1,2,4.4,3.1l3.8,3.4l-0.8,0.6c-1.2-1.9-2.5-3.6-4-5.2c-1.5-1.6-3.1-3.1-4.7-4.5l-4.2-3.6
			l5.6,1.2c3.3,0.7,6.6,1.8,9.6,3.4c1.5,0.8,2.9,1.8,4.2,3.1c1.3,1.2,2.4,2.6,3.4,4.1l-1.1,0.4c-0.1-1.9-0.5-3.7-1-5.5
			c-0.6-1.8-1.3-3.6-2.2-5.2c-0.9-1.6-2-3.2-3.3-4.6c-1.2-1.4-2.7-2.6-4.3-3.6l-1.6-1l2-0.8c1.8-0.7,3.8-1,5.7-0.8
			c1.9,0.2,3.8,0.7,5.6,1.5l-1.6,2.2c-1.1-1.2-2.1-2.5-3-3.9c-0.9-1.4-1.6-2.9-2.2-4.4c-1.2-3-1.8-6.3-1.7-9.5l0-1.7l1.3,1
			c2.2,1.8,4.5,3.6,6.8,5.3l-0.8,0.7c-2.8-5.2-5.4-10.5-7.4-16c-2.1-5.5-3.7-11.2-5-16.9c-1.3-5.7-2.1-11.6-2.5-17.4
			c-0.4-5.9-0.4-11.8,0-17.6L298.7,312.6z"/>
	</g>
	<path class="st3" d="M188.3,387.8c-0.7,2.3-3.7,3-5.9,3.7c2.5-3.6,4-7.9,4.4-12.2c-3.4,1.8-6.7,3.6-10.1,5.4
		c8.6-12.9,14.5-29.5,16.4-44.9C193.1,339.8,195.9,362.2,188.3,387.8z"/>
	<g class="st1">
		<path class="st2" d="M248.6,349.6c0,5.1-1.5,10.2-4.7,14.3c-1.6,2-3.5,3.8-5.8,5c-2.3,1.2-4.9,1.9-7.5,2c-2.6,0-5.2-0.6-7.5-1.9
			c-2.3-1.2-4.3-2.9-5.9-5c-3.2-4.1-4.8-9.3-4.9-14.4c0-5.2,1.6-10.4,4.9-14.5c1.6-2,3.6-3.8,5.9-5c2.3-1.2,4.9-1.9,7.6-1.9
			c2.6,0,5.2,0.7,7.5,2c2.3,1.2,4.3,3,5.8,5C247.1,339.4,248.6,344.6,248.6,349.6z M247.6,349.6c-0.1-4.9-1.6-9.7-4.6-13.5
			c-1.5-1.9-3.4-3.5-5.5-4.6c-2.1-1.1-4.5-1.7-6.8-1.7c-2.4,0-4.7,0.7-6.8,1.8c-2.1,1.1-3.9,2.7-5.4,4.6c-2.9,3.8-4.4,8.6-4.4,13.4
			c0,4.8,1.5,9.6,4.4,13.4c1.5,1.9,3.3,3.5,5.4,4.6c2.1,1.1,4.4,1.8,6.8,1.8c2.4,0,4.7-0.6,6.9-1.7c2.1-1.1,4-2.7,5.5-4.6
			C246,359.4,247.6,354.5,247.6,349.6z"/>
	</g>
	<ellipse class="st4" cx="268.9" cy="349.6" rx="17.5" ry="20.5"/>
	<ellipse class="st3" cx="231.9" cy="350.9" rx="8.2" ry="8"/>
	<circle class="st5" cx="229.5" cy="347.3" r="1.9"/>
	
		<ellipse transform="matrix(0.8879 -0.4601 0.4601 0.8879 -131.5962 161.8006)" class="st3" cx="266.1" cy="350.9" rx="8" ry="8.2"/>
	<circle class="st5" cx="268.2" cy="347.2" r="1.9"/>
	<path class="st3" d="M298,329.1c0,0,0.8,16.9,5.8,31.5c0.5,1.5,1.8,1.6,3.2,2.1c-0.6-1.1-0.8-2.4-0.7-3.6c2.1,1.2,4.2,2.3,6.2,3.5
		c-6.8-10.4-11.8-22.1-14.6-34.2"/>
	<g class="st1">
		<path class="st6" d="M242.1,355.5c-4.8,11.1-0.4,24.3,6.6,33.7c7.1-9.4,11.1-21.1,6.3-32.2l-5.3-15.2L242.1,355.5z"/>
		<path class="st2" d="M243.3,356.1l-0.5,2l-0.4,2.1l-0.2,2.1l0,2.1c0.1,2.8,0.7,5.5,1.6,8.1c0.9,2.6,2.1,5.1,3.6,7.5
			c1.5,2.3,3.2,4.5,5,6.5l0,0H245c3.5-3.9,6.5-8.4,8.1-13.3c0.8-2.5,1.3-5,1.4-7.6c0-2.6-0.4-5.2-1.2-7.8l-0.1-0.1l-4-15.6l0,0
			l0.9,0.1c-1.2,2.3-2.4,4.6-3.5,7c-0.6,1.2-1.1,2.4-1.7,3.5L243.3,356.1z M240.9,354.9l2.2-3.3c0.7-1.1,1.4-2.2,2.1-3.3
			c1.4-2.2,2.8-4.4,4.1-6.7l0.6-1l0.3,1.1l0,0l6.5,14.8l-0.1-0.1c1.4,2.7,2.4,5.7,2.9,8.9c0.5,3.1,0.4,6.3-0.1,9.5
			c-1,6.3-3.7,12.1-7,17.3l-3.2,5l-4.2-5l0,0c-1.7-2.8-3.2-5.8-4.3-8.8c-1.2-3-2-6.2-2.5-9.4c-0.5-3.2-0.6-6.5-0.2-9.7l0.4-2.4
			l0.6-2.3l0.8-2.3L240.9,354.9z"/>
	</g>
	<path class="st3" d="M257.6,300.4c11.8,2.7,24.8-0.9,33.5-9.3c-1.3,1.8-2.6,3.6-3.9,5.4c3.9,0.2,7.9-0.9,11.2-3
		c-0.6,0.6-1.1,1.3-1.7,1.9c15.4,0.9,31.2-4.7,42.4-15.3c-3.7,3.5-7.4,6.9-11.2,10.4c1.4-0.2,2.8-0.5,4.2-0.7
		c-3.2,4.5-7.7,8.1-12.8,10.3c1.6,1,3.2,1.9,4.8,2.9c-9.2-0.6-18.3,2.1-27.2,4.8c2.9,0.4,5.8,0,8.4-1.3c-10.4,7.4-26,3.9-36,11.8
		c1.4,0,2.8,0.1,4.2,0.1c-1.1,0.5-2.1,1-3.2,1.5c0.5,0,1,0.1,1.6,0.1c-0.2,0.3-0.5,0.6-0.7,0.9c-6.5,3-12.1,9.8-14.3,16.6
		c-2.2,7-1.4,14.5-0.6,21.7c-1.1-1.1-2.3-2.3-3.4-3.4c-0.3,0.6-0.6,1.1-0.9,1.7c-0.6-3.3-1.2-6.6-1.7-9.9c-2.6,4.2-4.3,9-4.9,13.9
		c-0.3-1-0.7-2-1-3c-0.4,0.9-0.8,1.8-1.1,2.7c0.1-2.1,0.1-4.2,0.2-6.2c-1.3,1.2-2.6,2.4-3.8,3.6c6.3-10,4.5-24.4-4.2-32.5
		c-8.7-8-23.2-8.8-32.7-1.7c0.3-1,0.7-2,1-3c-1.5,1.4-3,2.8-4.5,4.2c-0.5-1.8-0.2-3.9,0.8-5.5c-4.3,0.1-8.6,2-11.6,5.2
		c-2-3.4,0.7-8,4.5-9.2c3.7-1.3,7.8-0.1,11.4,1.3c-17.2-4.2-35-8.7-48.6-20c2,0,3.9-0.1,5.9-0.1c-4-2.7-7.9-5.4-11.9-8.1
		c2.7,0.9,5.4,1.8,8.1,2.8c-4.6-3.3-7.9-8.5-8.8-14.1c14.4,17.4,37.2,27.6,59.8,26.8c-2.1-0.2-3.8-2.2-3.8-4.3
		c11.9,2.9,24.4,3.7,36.6,2.4"/>
</g>
<g id="Layer_2">
	<g>
		<path class="st6" d="M250.6,449.3C138.4,449.3,47,358,47,245.7S138.4,42.2,250.6,42.2c112.2,0,203.6,91.3,203.6,203.6
			S362.8,449.3,250.6,449.3z M250.6,64.2C150.5,64.2,69,145.6,69,245.7s81.4,181.6,181.6,181.6c100.1,0,181.6-81.4,181.6-181.6
			S350.7,64.2,250.6,64.2z"/>
	</g>
	<g>
		<path class="st6" d="M217.5,232.1c-0.7,0.2-1.4,0.4-2,0.6C216.2,232.5,216.9,232.3,217.5,232.1z"/>
		<path class="st6" d="M222.8,326.7c-0.3,18.1,29,18.1,28.7,0C251.8,308.6,222.5,308.6,222.8,326.7z M233.1,323.7
			c-1.8,0-3.2-1.5-3.2-3.2c0-1.8,1.4-3.2,3.2-3.2c1.8,0,3.2,1.5,3.2,3.2C236.3,322.3,234.9,323.7,233.1,323.7z"/>
		<path class="st6" d="M416.7,208.8c-19.7,18.5-47.2,28.5-74.2,26.8c1-1.1,1.9-2.3,2.9-3.4c-5.7,3.8-12.7,5.6-19.5,5.3
			c2.3-3.2,4.5-6.3,6.7-9.5c-15.1,14.4-37.5,20.7-57.8,16.4c0.6-2.7,1.8-5.3,3.6-7.5c-4.5,1.9-8.7,4.5-12.4,7.7
			c-0.4-5.6,0.5-11.2,2.7-16.4c-5.7,3.9-10,9.8-12.2,16.3c-8.9-11.4-25.1-16.5-39.1-12.5c11.9-3.1,24.7,4.4,28.5,15.8c0,0,0,0,0,0
			c-21.5,1.9-43.5,1.4-63.8-4.1c0,3.7,3,7.1,6.7,7.5c-39.5,1.5-79.3-16.3-104.6-46.8c1.6,9.8,7.3,18.9,15.4,24.7
			c-4.7-1.6-9.4-3.2-14.2-4.8c6.9,4.7,13.9,9.4,20.8,14.1c-3.4,0.1-6.9,0.1-10.3,0.2c20.5,16.9,46.4,25.1,72.4,31.8
			c-9.9,0.2-19.4,5.8-15.2,16.9c1.5-1.6,3.2-3,5-4.2c1.1,10.9,2,22.2,2.5,33.6c-3.8,25.9-13.8,53.3-28.2,74.9
			c5.9-3.1,11.8-6.3,17.6-9.4c-0.7,7.6-3.4,15.1-7.7,21.4c2.4-0.8,5.4-1.6,7.6-3.1c-4.4,11-10.4,21.3-18.4,30.8l1.6,1.6
			c11-8.7,25.2-12.9,39.1-12.1c-4.9,9.1-7.7,19.5-7.2,29.9c7.7-9.4,16.3-18.1,25.2-26.4c-0.4,10.8-1.9,21.8-4.1,32.3
			c8.7-13.2,23.5-24.4,40.1-21c9.5-1.9,17,8.3,14,15c-6.9,4.2-14,9.2-20.2,13.1l13.3-4.3c0.2-0.1,0.3-0.1,0.4-0.2l0,0
			c5.4-1.7,10.6-3.5,15.7-5.9c0,6.5,0.1,15.2,0.1,21c3.8-7.9,8.3-17.3,12.1-25.6c5,4.6,19.8-1.8,25.2,8.5c1.7-4.3,1-9.3-1.7-13
			c4.5,0.5,9.1,1.5,13.6,1.8c3.6,8.7,11,25.2,14.4,32.8l-2.9-25.2c-0.5-6.2,6.6-11.8,11.2-15.2c3.8,2.8,7.5,8.2,11.2,11.7l4.6-3.1
			c-0.1-0.1-0.2-0.3-0.3-0.4c-2.9-4.6-6.9-10.8-10-15.8c0.6-0.1,1.3-0.2,1.9-0.4c9.8-4.8,17.9,1.1,24.7,8.4c0.2,0.3,0.5,0.5,0.7,0.8
			l0.1,0c3.1,3.4,6,6.9,8.6,9.8c-3.1-6.6-6.1-13.8-9.9-20.5c9.1,3.8,17.6,9,23.4,17.2c-2.7-16.1-9.5-32-21.8-43
			c8.3-1.4,16.3,2.6,23.3,6.5c-8-8.1-14.9-18.1-16.4-29.5c5.6,4.2,11.8,8.8,17.1,12.6c-2.2-3.6-4.3-7.2-6.3-10.8l0,0
			c0,0-0.1,0-0.1-0.1c-5.5-9.9-10.2-19.5-14-29.3v0c0,0,0,0,0,0c0.6,0.2,1.2,0.4,1.9,0.6c-1-1.9-1.5-4.2-1.2-6.3
			c3.6,2,7.3,4.1,10.9,6.1c-10.5-16.2-18.5-34-23.7-52.6c-0.8-10.9-0.8-22.2,0.2-34.4c0.5-1.5,1.6-4.6,2.3-6.5
			c3-1.2,5.9-2.7,8.6-4.6c-4.5,2.2-9.7,3.1-14.7,2.3c15.5-4.6,31.4-9.3,47.5-8.3c-2.8-1.7-5.6-3.4-8.3-5.1
			c8.9-3.8,16.8-10.1,22.4-18c-2.5,0.4-4.9,0.9-7.4,1.3C403.7,220.9,410.2,214.9,416.7,208.8z M234.3,288.9c3.1,2.8,5.8,5.9,8.1,9.4
			c-18.8-11.2-47.5-0.4-47.6,32.2c0.2,30.9,25.9,42.2,44.6,33.7c0,2.2,0.2,4.4,0.4,6.6c-20.7,15.8-53.4,2.7-52.1-40.3
			C189.3,293.1,214.8,279.4,234.3,288.9z M278.7,360.6c-0.5-6.6-2.3-13.1-5.5-18.8l-2.6-5.9c-0.8-11.8,1.1-23.5,6.1-33.7
			c0.5-0.4,1.1-0.9,1.7-1.3c4.5-3.3,10-5.2,15.5-5.1c4.8,0.1,9.6,1.6,13.7,4.2c4.1,2.6,7.4,6.3,9.9,10.5c5,8.4,6.5,18.7,4.6,28.2
			c-1,4.8-2.8,9.4-5.5,13.4c-2.7,4.1-6.3,7.5-10.5,9.8c-4.2,2.5-9.1,3.4-13.9,3.3C287.3,364.9,282.7,363.3,278.7,360.6z
			 M251.3,345.6c0.3,1,0.7,2.1,1,3.1c0.2,0.7,0.5,1.5,0.7,2.2c0.2-2.2,0.6-4.3,1.1-6.4v0c0.4-1.8,0.9-3.5,1.5-5.3
			c0.1-0.3,0.2-0.6,0.3-0.9v0c0.7-1.9,1.4-3.8,2.3-5.6c0-0.1,0.1-0.2,0.2-0.4c0,0,0,0,0,0c0.9-2,2-3.9,3.1-5.7
			c0.4,2.3,0.8,4.5,1.2,6.8c0,0,0,0,0,0c0.6,3.5,1.2,7,1.8,10.5c0.2-0.4,0.4-0.8,0.6-1.1c0.1-0.1,0.1-0.2,0.2-0.3
			c0.2-0.4,0.4-0.8,0.6-1.2c0.5,2.3,0.9,4.5,1.2,6.7c0.2,1.1,0.3,2.2,0.4,3.3c0.2,1.6,0.3,3.2,0.3,4.8v0c0.4,10.5-2,20.6-9.4,30.9
			c-4.9-6.8-8.6-14.6-10.4-22.7c-0.2-0.7-0.3-1.4-0.4-2.1c-0.2-1.1-0.4-2.3-0.5-3.4c-0.1-1-0.2-1.9-0.2-2.9
			c-0.2-4.8,0.4-9.6,1.9-14.3c0.2-0.4,0.4-0.8,0.5-1.2c-0.1,3.3-0.2,6.5-0.3,9.8C250,348.8,250.7,347.2,251.3,345.6z M239.4,361.5
			c-17.2,8.4-41.4-1.9-41.5-31.1c0.2-32.7,30.5-41.7,47.4-27.1c4.7,9.5,6.1,20.6,2.5,31.8c-1,1.5-2,3-3,4.5
			C241.4,346.6,239.7,354,239.4,361.5z M277.9,362.2c4.1,2.9,8.9,4.8,14,5.3c5.3,0.4,10.7-0.6,15.3-3.2c4.7-2.5,8.7-6.1,11.6-10.5
			c3-4.4,5-9.3,6.1-14.4c1.1-5.1,1.2-10.5,0.4-15.7c-0.2-1.3-0.5-2.6-0.8-3.9c-0.3-1.3-0.8-2.5-1.1-3.8c-0.5-1.2-1-2.4-1.6-3.6
			c-0.6-1.2-1.2-2.4-1.9-3.5c-2.8-4.5-6.5-8.4-11-11.2c-4.5-2.8-9.8-4.3-15.1-4.3c-5.3,0-10.5,1.7-14.9,4.4c1.9-3.3,4.2-6.3,6.9-9.1
			c19.9-10.3,46.4,3.3,46.6,41.8c1.4,45.5-34.4,57.5-54.6,37.5C278,366.1,278,364.1,277.9,362.2z M364,375.7
			c-2.5-1.8-5.1-3.7-7.6-5.5c-0.3,11.1,2.7,22.5,9.7,31.1c-5.1-0.9-10.2-0.5-15.1,1c8.6,6.5,14.7,16.1,17,26.6
			c-10.9-9.7-27-13.1-40.7-16.6c5.4,5.4,11.6,11.1,17.5,17c-13.4-5.8-15.9,4.6-24.5-6c1.2,2.6,2.5,5.3,3.8,8.1
			c-1.1-0.4-2.3-0.6-3.7-0.6c-6.2,2.2-12.3,6.9-15.6,13c-0.4-0.7-0.8-1.4-1.2-2.1l-4.5-1.2c0.1-0.1,0.3-0.2,0.5-0.3
			c-6.1,1-13.3-0.6-19.1,1.2l1.3,0l-1.5,2.5l0,0l0,0l0.2,0.1h0.1c3.2,1.6,5.3,5.4,5.2,9.1c-6.8-6.8-22.6-2-22.3-8.3l-3.3-1.4
			c-1.3,2-2.7,4.1-4,6.1c-0.5-3.6-2.4-5.9-7.6-3.4c-2,1-4.1,2.1-6.3,3.3c1.2-8.2-5.9-17.7-16.1-17.5c-12-4.4-27.2-0.6-35,9.7
			c-0.3-6.6-0.1-13.3,0.2-19.9c-6.9,6.6-13.9,13.3-21.3,19.2c2.3-8.4,5.2-16.6,9.8-24.1c-14.6-1.9-29.7,1.7-41.9,9.8
			c28.9-41.5,25.8-95.7,21.9-144l-0.8,0.1l0.8-0.4l-0.1-0.1c4.2-2.4,8.9-3.8,13.7-3.9c-1.6,2.9-2.1,6.4-1.3,9.6
			c2.6-2.4,5.2-4.8,7.8-7.3c-0.6,1.7-1.2,3.4-1.8,5.2c13.4-9.9,28.2-10.9,40.9-6.2c-19.5,0.5-38.8,17.4-38.2,50.8
			c2.1,43.7,36.8,58.2,59.1,42.1c2.1,15.1,9.4,29.8,19.4,40.6c8.8-12.4,16.7-27.7,18.3-43.2c21.9,20.4,60.4,6.6,63-39.5
			c-0.5-36.2-24-53-45.1-49.8c1.2-0.8,2.5-1.5,3.8-2.2c-0.9-0.1-1.8-0.1-2.7-0.2c1.9-0.8,3.7-1.7,5.5-2.6c-2.4-0.1-4.9-0.1-7.3-0.2
			c11.9-9.4,28.2-9.6,43.2-12.8c2.2-0.2,4.4-0.3,6.5-0.5C337.1,292.3,349.5,344.6,364,375.7z"/>
		<path class="st6" d="M274.3,315.6c-16.2,8.1-2.7,34.1,13.2,25.5C303.7,333.1,290.3,307.1,274.3,315.6z M286.1,324.8
			c-1.6,0.8-3.5,0.2-4.4-1.4c-0.8-1.6-0.2-3.5,1.4-4.4c1.6-0.8,3.5-0.2,4.4,1.4C288.3,322,287.6,324,286.1,324.8z"/>
	</g>
	<g>
		<path class="st6" d="M285.8,174.5c-23.5,0-46.8,0-70.4,0c1.7-3.2,3.4-6.3,5.1-9.3c8.8-16,17.6-32,26.4-48c0.9-1.6,1.7-3.1,2.6-4.6
			c0.3-0.5,0.8-0.8,1.2-1.2c0.4,0.4,0.8,0.7,1,1.1c5.5,9.9,10.9,19.8,16.4,29.8c5.7,10.4,11.5,20.8,17.2,31.2
			C285.4,173.8,285.6,174.1,285.8,174.5z"/>
		<path class="st6" d="M255.3,110.8c19.8,1.3,39.3,2.6,59.1,3.9c-8.7,18.6-17.3,37.1-26,55.8C277.3,150.6,266.4,130.9,255.3,110.8z"
			/>
		<path class="st6" d="M245.9,110.8c-11.1,20-22,39.7-33.1,59.7c-8.7-18.7-17.3-37.1-26.1-55.8C206.5,113.4,226,112.1,245.9,110.8z"
			/>
		<path class="st6" d="M216.4,178.8c23,0,45.6,0,68.5,0c-11.5,14.7-22.8,29.2-34.3,43.9C239.2,208.2,227.9,193.6,216.4,178.8z"/>
		<path class="st6" d="M252.8,107.1c0-10.2,0-20.1,0-30.3c19.3,11.2,38.5,22.3,57.6,33.3c0,0.1,0,0.2,0,0.3
			C291.2,109.3,272.1,108.2,252.8,107.1z"/>
		<path class="st6" d="M190.7,110.1C209.9,99,229,88,248.3,76.8c0,10.2,0,20.2,0,30.3c-19.1,1.1-38.3,2.2-57.5,3.3
			C190.8,110.3,190.8,110.2,190.7,110.1z"/>
		<path class="st6" d="M186.3,185.9c0-20.7,0-41.4,0-62.2c1.9,4.1,3.8,8.1,5.6,12.1c5.9,12.7,11.9,25.5,17.8,38.2
			c0.4,0.8,0.6,1.4-0.5,1.9c-7.4,3.3-14.8,6.6-22.1,9.9C187,185.8,186.8,185.8,186.3,185.9z"/>
		<path class="st6" d="M314.8,186.1c-8.2-3.7-16-7.2-24-10.8c8-17.3,16-34.4,24-51.7C314.8,144.5,314.8,165.1,314.8,186.1z"/>
		<path class="st6" d="M260,217.7c9.9-12.9,19.8-25.7,29.8-38.6c6.8,3.2,13.6,6.3,20.6,9.6c-16.9,9.8-33.5,19.5-50.1,29.3
			C260.1,217.8,260.1,217.7,260,217.7z"/>
		<path class="st6" d="M211.5,179c9.9,12.9,19.8,25.8,29.7,38.6c-0.1,0.1-0.2,0.2-0.2,0.3c-16.6-9.7-33.3-19.4-50.2-29.3
			C197.9,185.4,204.7,182.2,211.5,179z"/>
	</g>
</g>
<g id="Layer_3">
</g>
</svg>
