<?xml version="1.0" encoding="utf-8"?>
<!-- Generator: Adobe Illustrator 25.2.1, SVG Export Plug-In . SVG Version: 6.00 Build 0)  -->
<svg version="1.1" id="Layer_1" xmlns="http://www.w3.org/2000/svg" xmlns:xlink="http://www.w3.org/1999/xlink" x="0px" y="0px"
	 viewBox="0 0 226.77 226.77" style="enable-background:new 0 0 226.77 226.77;" xml:space="preserve">
<style type="text/css">
	.st0{fill:#FFFFFF;}
</style>
<g>
	<path class="st0" d="M90.46,43.53c-0.44,0.12-0.87,0.24-1.3,0.41C89.59,43.78,90.03,43.65,90.46,43.53z"/>
	<path class="st0" d="M88.64,108.32c-0.18,11.66,18.69,11.66,18.51,0C107.34,96.67,88.47,96.67,88.64,108.32z M95.29,106.42
		c-1.16,0-2.09-0.94-2.09-2.09c0-1.15,0.92-2.09,2.09-2.09c1.15,0,2.09,0.94,2.09,2.09C97.38,105.48,96.44,106.42,95.29,106.42z"/>
	<path class="st0" d="M218.93,28.48c-12.71,11.94-30.44,18.36-47.85,17.29c0.62-0.72,1.24-1.45,1.87-2.18
		c-3.7,2.42-8.17,3.64-12.58,3.43c1.45-2.04,2.9-4.08,4.35-6.11c-9.71,9.3-24.15,13.37-37.3,10.58c0.38-1.77,1.18-3.45,2.34-4.83
		c-2.9,1.23-5.6,2.92-7.98,4.99c-0.28-3.59,0.32-7.25,1.74-10.57c-3.66,2.54-6.46,6.29-7.86,10.52
		c-5.77-7.38-16.22-10.65-25.19-8.07c7.68-2.02,15.93,2.86,18.36,10.18l0,0c-13.85,1.22-28.02,0.92-41.13-2.63
		c-0.02,2.37,1.94,4.58,4.3,4.83C46.49,56.85,20.83,45.36,4.56,25.72c1.05,6.33,4.7,12.18,9.92,15.91
		c-3.04-1.04-6.09-2.07-9.13-3.11c4.48,3.03,8.95,6.07,13.43,9.1c-2.22,0.05-4.43,0.09-6.64,0.14
		c13.23,10.91,29.95,16.2,46.69,20.49c-6.42,0.11-12.54,3.74-9.8,10.9c0.96-1.01,2.04-1.92,3.21-2.68
		c0.69,7.05,1.31,14.32,1.63,21.66c-2.48,16.72-8.92,34.38-18.21,48.33c3.79-2.02,7.58-4.03,11.38-6.05
		c-0.47,4.92-2.19,9.71-4.97,13.8c1.58-0.53,3.5-1.05,4.91-1.98c-2.84,7.07-6.69,13.75-11.84,19.87l1,1
		c7.09-5.59,16.25-8.3,25.21-7.83c-3.18,5.9-4.97,12.56-4.63,19.29c4.98-6.07,10.51-11.67,16.23-17.04
		c-0.28,6.95-1.23,14.05-2.65,20.85c5.62-8.54,15.18-15.76,25.87-13.56c6.13-1.22,10.97,5.37,9,9.65
		c-4.45,2.68-9.02,5.91-13.03,8.46l8.6-2.8c0.1-0.03,0.19-0.07,0.28-0.11l0.01,0.02c3.45-1.13,6.86-2.29,10.14-3.78
		c0,4.22,0.09,9.83,0.08,13.52c2.48-5.1,5.36-11.15,7.79-16.52c3.2,2.99,12.75-1.17,16.27,5.49c1.07-2.8,0.63-6.01-1.11-8.39
		c2.91,0.29,5.89,0.96,8.77,1.15c2.31,5.62,7.11,16.24,9.28,21.18l-1.87-16.24c-0.34-4.03,4.25-7.61,7.25-9.8
		c2.46,1.83,4.84,5.28,7.24,7.57l2.98-1.98c-0.06-0.09-0.11-0.18-0.18-0.27c-1.89-2.99-4.43-6.95-6.44-10.18
		c0.42-0.03,0.83-0.14,1.21-0.26c6.35-3.07,11.53,0.73,15.92,5.39c0.16,0.18,0.3,0.35,0.44,0.53l0.03-0.02
		c2.01,2.16,3.84,4.48,5.56,6.34c-1.97-4.25-3.92-8.93-6.36-13.23c5.86,2.48,11.33,5.78,15.08,11.06
		c-1.77-10.41-6.14-20.63-14.06-27.76c5.32-0.89,10.53,1.68,15.04,4.16c-5.13-5.21-9.58-11.7-10.6-19.02
		c3.6,2.72,7.61,5.68,11.02,8.14c-1.41-2.33-2.76-4.65-4.04-6.95l0.02-0.01c-0.01-0.01-0.03-0.02-0.05-0.03
		c-3.54-6.38-6.55-12.61-9-18.86v-0.01l0,0c0.39,0.13,0.81,0.24,1.24,0.38c-0.66-1.24-0.94-2.68-0.79-4.08
		c2.34,1.31,4.69,2.61,7.03,3.92c-6.78-10.43-11.95-21.91-15.28-33.9c-0.54-7.01-0.5-14.32,0.16-22.16
		c0.35-0.98,1.06-2.94,1.51-4.19c1.96-0.78,3.83-1.75,5.57-2.99c-2.91,1.44-6.27,1.97-9.49,1.49c9.99-2.99,20.24-6.01,30.65-5.38
		c-1.79-1.09-3.59-2.2-5.38-3.29c5.75-2.47,10.81-6.54,14.45-11.64c-1.59,0.28-3.18,0.55-4.78,0.82
		C210.53,36.31,214.73,32.4,218.93,28.48z M101.29,80.11c1.98,1.78,3.75,3.81,5.21,6.03c-12.11-7.24-30.6-0.28-30.69,20.79
		c0.12,19.96,16.73,27.24,28.76,21.74c0.01,1.42,0.1,2.85,0.27,4.27c-13.36,10.18-34.41,1.77-33.58-26.01
		C72.25,82.85,88.72,73.98,101.29,80.11z M129.92,126.36c-0.3-4.23-1.49-8.42-3.54-12.15l-1.69-3.83
		c-0.51-7.63,0.74-15.17,3.92-21.72c0.35-0.29,0.7-0.57,1.07-0.83c2.9-2.12,6.44-3.33,10-3.29c3.13,0.06,6.19,1.03,8.82,2.7
		c2.62,1.7,4.77,4.08,6.39,6.76c3.25,5.39,4.17,12.05,2.96,18.21c-0.62,3.08-1.82,6.06-3.56,8.67c-1.73,2.62-4.08,4.81-6.79,6.35
		c-2.71,1.58-5.87,2.21-8.99,2.1C135.46,129.17,132.47,128.09,129.92,126.36z M112.26,116.72c0.21,0.68,0.44,1.35,0.65,2.03
		c0.16,0.47,0.3,0.95,0.46,1.41c0.16-1.39,0.41-2.75,0.72-4.1v-0.01c0.26-1.15,0.57-2.28,0.95-3.39c0.07-0.2,0.14-0.41,0.21-0.61
		v-0.01c0.43-1.23,0.92-2.44,1.49-3.62c0.02-0.08,0.07-0.16,0.1-0.24c0-0.01,0-0.01,0.01-0.01c0.6-1.26,1.26-2.49,2.01-3.68
		c0.26,1.47,0.51,2.92,0.77,4.39c0,0.01,0,0.01,0,0.02c0.41,2.27,0.79,4.52,1.18,6.79c0.12-0.24,0.26-0.48,0.38-0.72
		c0.05-0.08,0.08-0.15,0.12-0.23c0.14-0.25,0.27-0.5,0.41-0.74c0.32,1.45,0.59,2.9,0.79,4.32c0.1,0.71,0.19,1.42,0.27,2.13
		c0.11,1.04,0.19,2.07,0.21,3.1v0.01c0.24,6.79-1.26,13.32-6.03,19.9c-3.13-4.39-5.56-9.39-6.71-14.61
		c-0.1-0.46-0.19-0.91-0.27-1.38c-0.14-0.73-0.24-1.47-0.32-2.2c-0.06-0.62-0.1-1.24-0.12-1.86c-0.11-3.07,0.26-6.17,1.24-9.21
		c0.11-0.25,0.24-0.5,0.35-0.76c-0.05,2.1-0.11,4.19-0.17,6.29C111.41,118.73,111.83,117.73,112.26,116.72z M104.6,126.96
		c-11.12,5.43-26.68-1.22-26.75-20.02c0.14-21.08,19.64-26.87,30.57-17.48c3.02,6.1,3.92,13.27,1.6,20.48
		c-0.64,0.98-1.29,1.96-1.92,2.93C105.87,117.31,104.76,122.1,104.6,126.96z M129.4,127.38c2.62,1.87,5.74,3.11,9,3.39
		c3.39,0.24,6.89-0.42,9.89-2.08c3.01-1.61,5.62-3.96,7.51-6.79c1.92-2.81,3.24-6,3.94-9.31c0.71-3.31,0.79-6.75,0.26-10.1
		c-0.11-0.84-0.34-1.66-0.51-2.49c-0.22-0.82-0.49-1.62-0.74-2.43c-0.34-0.78-0.63-1.58-1-2.34c-0.41-0.74-0.75-1.53-1.23-2.23
		c-1.79-2.88-4.19-5.43-7.1-7.23c-2.92-1.78-6.32-2.78-9.74-2.77c-3.4,0.01-6.74,1.06-9.58,2.86c1.26-2.1,2.73-4.07,4.45-5.87
		c12.84-6.65,29.94,2.11,30.06,26.95c0.92,29.35-22.16,37.05-35.24,24.21C129.45,129.89,129.46,128.64,129.4,127.38z M184.94,136.11
		c-1.63-1.18-3.28-2.37-4.88-3.55c-0.2,7.13,1.76,14.49,6.28,20.02c-3.26-0.56-6.6-0.29-9.74,0.63c5.56,4.19,9.49,10.4,10.98,17.16
		c-7.06-6.24-17.41-8.47-26.24-10.71c3.46,3.47,7.51,7.16,11.26,10.95c-8.61-3.77-10.26,2.99-15.83-3.84
		c0.79,1.66,1.62,3.42,2.48,5.23c-0.71-0.27-1.5-0.41-2.38-0.37c-3.97,1.41-7.95,4.48-10.04,8.35c-0.26-0.45-0.52-0.91-0.79-1.36
		l-2.9-0.74c0.09-0.08,0.21-0.15,0.34-0.18c-3.94,0.63-8.55-0.38-12.35,0.74l0.85-0.02l-0.96,1.63l0.01,0.01l0.01,0.01l0.14,0.09
		h0.05c2.06,1.06,3.39,3.47,3.38,5.84c-4.39-4.37-14.55-1.32-14.41-5.33l-2.13-0.91c-0.86,1.31-1.71,2.63-2.57,3.95
		c-0.35-2.33-1.58-3.79-4.92-2.2c-1.31,0.62-2.66,1.34-4.04,2.14c0.78-5.29-3.8-11.44-10.38-11.25c-7.73-2.86-17.56-0.36-22.55,6.24
		c-0.19-4.27-0.03-8.57,0.12-12.84c-4.45,4.27-8.94,8.55-13.76,12.4c1.45-5.42,3.35-10.7,6.29-15.53
		c-9.4-1.23-19.16,1.12-27.05,6.33c18.6-26.75,16.63-61.7,14.12-92.87l-0.54,0.05l0.48-0.25l-0.03-0.08
		c2.68-1.54,5.75-2.42,8.84-2.5c-1.06,1.86-1.38,4.14-0.86,6.21c1.69-1.57,3.37-3.12,5.05-4.68c-0.38,1.1-0.77,2.22-1.15,3.33
		c8.64-6.4,18.2-7.01,26.37-3.99c-12.56,0.29-25,11.24-24.65,32.74c1.36,28.19,23.76,37.51,38.12,27.14
		c1.38,9.72,6.07,19.19,12.49,26.2c5.71-8.01,10.77-17.88,11.78-27.86c14.14,13.14,38.93,4.25,40.62-25.48
		c-0.35-23.35-15.49-34.2-29.08-32.1c0.78-0.5,1.59-0.97,2.42-1.41c-0.59-0.03-1.17-0.07-1.76-0.1c1.2-0.54,2.38-1.09,3.56-1.65
		c-1.57-0.05-3.13-0.09-4.7-0.14c7.66-6.04,18.21-6.18,27.86-8.25c1.42-0.1,2.82-0.2,4.18-0.3
		C167.57,82.35,175.55,116.07,184.94,136.11z"/>
	<path class="st0" d="M132.28,100.1c-10.43,5.21-1.75,21.96,8.52,16.44C151.23,111.33,142.55,94.58,132.28,100.1z M139.84,106.02
		c-1.03,0.53-2.28,0.12-2.82-0.89c-0.53-1.03-0.12-2.29,0.9-2.82c1.01-0.53,2.28-0.12,2.81,0.89
		C141.26,104.23,140.87,105.49,139.84,106.02z"/>
</g>
</svg>
