<?xml version="1.0" encoding="utf-8"?>
<!-- Generator: Adobe Illustrator 25.2.1, SVG Export Plug-In . SVG Version: 6.00 Build 0)  -->
<svg version="1.1" id="Layer_1" xmlns="http://www.w3.org/2000/svg" xmlns:xlink="http://www.w3.org/1999/xlink" x="0px" y="0px"
	 viewBox="0 0 226.8 226.8" width="512" height="512" style="enable-background:new 0 0 226.8 226.8;" xml:space="preserve">
<style type="text/css">
	.st0{fill:#FFFFFF;}
</style>
<g>
	<path class="st0" d="M91,42.8c-0.4,0.1-0.9,0.2-1.3,0.4C90.1,43,90.5,42.9,91,42.8z"/>
	<path class="st0" d="M89.2,107.5c-0.2,11.7,18.7,11.7,18.5,0C107.9,95.9,89,95.9,89.2,107.5z M95.8,105.6c-1.2,0-2.1-0.9-2.1-2.1
		c0-1.2,0.9-2.1,2.1-2.1c1.2,0,2.1,0.9,2.1,2.1C97.9,104.7,97,105.6,95.8,105.6z"/>
	<path class="st0" d="M219.4,27.7C206.7,39.6,189,46.1,171.6,45c0.6-0.7,1.2-1.5,1.9-2.2c-3.7,2.4-8.2,3.6-12.6,3.4
		c1.4-2,2.9-4.1,4.4-6.1c-9.7,9.3-24.1,13.4-37.3,10.6c0.4-1.8,1.2-3.5,2.3-4.8c-2.9,1.2-5.6,2.9-8,5c-0.3-3.6,0.3-7.2,1.7-10.6
		c-3.7,2.5-6.5,6.3-7.9,10.5c-5.8-7.4-16.2-10.6-25.2-8.1c7.7-2,15.9,2.9,18.4,10.2l0,0c-13.8,1.2-28,0.9-41.1-2.6
		c0,2.4,1.9,4.6,4.3,4.8C47,56.1,21.3,44.6,5.1,24.9c1,6.3,4.7,12.2,9.9,15.9c-3-1-6.1-2.1-9.1-3.1c4.5,3,9,6.1,13.4,9.1
		c-2.2,0-4.4,0.1-6.6,0.1c13.2,10.9,30,16.2,46.7,20.5c-6.4,0.1-12.5,3.7-9.8,10.9c1-1,2-1.9,3.2-2.7c0.7,7.1,1.3,14.3,1.6,21.7
		c-2.5,16.7-8.9,34.4-18.2,48.3c3.8-2,7.6-4,11.4-6.1c-0.5,4.9-2.2,9.7-5,13.8c1.6-0.5,3.5-1.1,4.9-2c-2.8,7.1-6.7,13.8-11.8,19.9
		l1,1c7.1-5.6,16.2-8.3,25.2-7.8c-3.2,5.9-5,12.6-4.6,19.3c5-6.1,10.5-11.7,16.2-17c-0.3,6.9-1.2,14.1-2.7,20.9
		c5.6-8.5,15.2-15.8,25.9-13.6c6.1-1.2,11,5.4,9,9.6c-4.4,2.7-9,5.9-13,8.5l8.6-2.8c0.1,0,7.2-2.4,10.4-3.9c0,4.2,0.1,9.8,0.1,13.5
		c2.5-5.1,5.4-11.1,7.8-16.5c3.2,3,12.8-1.2,16.3,5.5c1.1-2.8,0.6-6-1.1-8.4c2.9,0.3,5.9,1,8.8,1.1c2.3,5.6,7.1,16.2,9.3,21.2
		l-1.9-16.2c-0.3-4,4.2-7.6,7.2-9.8c2.5,1.8,4.8,5.3,7.2,7.6l3-2c-0.1-0.1-0.1-0.2-0.2-0.3c-1.9-3-4.4-6.9-6.4-10.2
		c0.4,0,0.8-0.1,1.2-0.3c6.4-3.1,11.5,0.7,15.9,5.4c0.2,0.2,0.3,0.4,0.4,0.5l0,0c2,2.2,3.8,4.5,5.6,6.3c-2-4.2-3.9-8.9-6.4-13.2
		c5.9,2.5,11.3,5.8,15.1,11.1c-1.8-10.4-6.1-20.6-14.1-27.8c5.3-0.9,10.5,1.7,15,4.2c-5.1-5.2-9.6-11.7-10.6-19
		c3.6,2.7,7.6,5.7,11,8.1c-1.4-2.3-2.8-4.6-4-6.9l0,0c0,0,0,0-0.1,0c-3.5-6.4-6.6-12.6-9-18.9v0l0,0c0.4,0.1,0.8,0.2,1.2,0.4
		c-0.7-1.2-0.9-2.7-0.8-4.1c2.3,1.3,4.7,2.6,7,3.9c-6.8-10.4-11.9-21.9-15.3-33.9c-0.5-7-0.5-14.3,0.2-22.2c0.4-1,1.1-2.9,1.5-4.2
		c2-0.8,3.8-1.8,5.6-3c-2.9,1.4-6.3,2-9.5,1.5c10-3,20.2-6,30.6-5.4c-1.8-1.1-3.6-2.2-5.4-3.3c5.8-2.5,10.8-6.5,14.4-11.6
		c-1.6,0.3-3.2,0.5-4.8,0.8C211,35.5,215.2,31.6,219.4,27.7z M101.8,79.3c2,1.8,3.8,3.8,5.2,6c-12.1-7.2-30.6-0.3-30.7,20.8
		c0.1,20,16.7,27.2,28.8,21.7c0,1.4,0.1,2.8,0.3,4.3c-13.4,10.2-34.4,1.8-33.6-26C72.8,82.1,89.2,73.2,101.8,79.3z M130.4,125.6
		c-0.3-4.2-1.5-8.4-3.5-12.2l-1.7-3.8c-0.5-7.6,0.7-15.2,3.9-21.7c0.4-0.3,0.7-0.6,1.1-0.8c2.9-2.1,6.4-3.3,10-3.3
		c3.1,0.1,6.2,1,8.8,2.7c2.6,1.7,4.8,4.1,6.4,6.8c3.2,5.4,4.2,12.1,3,18.2c-0.6,3.1-1.8,6.1-3.6,8.7c-1.7,2.6-4.1,4.8-6.8,6.3
		c-2.7,1.6-5.9,2.2-9,2.1C136,128.4,133,127.3,130.4,125.6z M112.8,115.9c0.2,0.7,0.4,1.3,0.7,2c0.2,0.5,0.3,0.9,0.5,1.4
		c0.2-1.4,0.4-2.8,0.7-4.1v0c0.3-1.2,0.6-2.3,0.9-3.4c0.1-0.2,0.1-0.4,0.2-0.6v0c0.4-1.2,0.9-2.4,1.5-3.6c0-0.1,0.1-0.2,0.1-0.2
		c0,0,0,0,0,0c0.6-1.3,1.3-2.5,2-3.7c0.3,1.5,0.5,2.9,0.8,4.4c0,0,0,0,0,0c0.4,2.3,0.8,4.5,1.2,6.8c0.1-0.2,0.3-0.5,0.4-0.7
		c0.1-0.1,0.1-0.2,0.1-0.2c0.1-0.2,0.3-0.5,0.4-0.7c0.3,1.4,0.6,2.9,0.8,4.3c0.1,0.7,0.2,1.4,0.3,2.1c0.1,1,0.2,2.1,0.2,3.1v0
		c0.2,6.8-1.3,13.3-6,19.9c-3.1-4.4-5.6-9.4-6.7-14.6c-0.1-0.5-0.2-0.9-0.3-1.4c-0.1-0.7-0.2-1.5-0.3-2.2c-0.1-0.6-0.1-1.2-0.1-1.9
		c-0.1-3.1,0.3-6.2,1.2-9.2c0.1-0.2,0.2-0.5,0.3-0.8c-0.1,2.1-0.1,4.2-0.2,6.3C111.9,118,112.3,117,112.8,115.9z M105.1,126.2
		c-11.1,5.4-26.7-1.2-26.8-20c0.1-21.1,19.6-26.9,30.6-17.5c3,6.1,3.9,13.3,1.6,20.5c-0.6,1-1.3,2-1.9,2.9
		C106.4,116.5,105.3,121.3,105.1,126.2z M129.9,126.6c2.6,1.9,5.7,3.1,9,3.4c3.4,0.2,6.9-0.4,9.9-2.1c3-1.6,5.6-4,7.5-6.8
		c1.9-2.8,3.2-6,3.9-9.3c0.7-3.3,0.8-6.8,0.3-10.1c-0.1-0.8-0.3-1.7-0.5-2.5c-0.2-0.8-0.5-1.6-0.7-2.4c-0.3-0.8-0.6-1.6-1-2.3
		c-0.4-0.7-0.8-1.5-1.2-2.2c-1.8-2.9-4.2-5.4-7.1-7.2c-2.9-1.8-6.3-2.8-9.7-2.8c-3.4,0-6.7,1.1-9.6,2.9c1.3-2.1,2.7-4.1,4.4-5.9
		c12.8-6.7,29.9,2.1,30.1,26.9c0.9,29.3-22.2,37-35.2,24.2C130,129.1,130,127.9,129.9,126.6z M53.8,75.1c2.7-1.5,5.8-2.4,8.8-2.5
		c-1.1,1.9-1.4,4.1-0.9,6.2c1.7-1.6,3.4-3.1,5.1-4.7c-0.4,1.1-0.8,2.2-1.2,3.3c8.6-6.4,18.2-7,26.4-4c-12.6,0.3-25,11.2-24.7,32.7
		c1.4,28.2,23.8,37.5,38.1,27.1c1.4,9.7,6.1,19.2,12.5,26.2c5.7-8,10.8-17.9,11.8-27.9c14.1,13.1,38.9,4.2,40.6-25.5
		C170,82.8,154.9,72,141.3,74.1c0.8-0.5,1.6-1,2.4-1.4c-0.6,0-1.2-0.1-1.8-0.1c1.2-0.5,2.4-1.1,3.6-1.7c-1.6-0.1-3.1-0.1-4.7-0.1
		c7.7-6,18.2-6.2,27.9-8.2c1.4-0.1,2.8-0.2,4.2-0.3c-4.8,19.3,3.2,53.1,12.6,73.1c-1.6-1.2-3.3-2.4-4.9-3.6
		c-0.2,7.1,1.8,14.5,6.3,20c-3.3-0.6-6.6-0.3-9.7,0.6c5.6,4.2,9.5,10.4,11,17.2c-7.1-6.2-17.4-8.5-26.2-10.7
		c3.5,3.5,7.5,7.2,11.3,10.9c-8.6-3.8-10.3,3-15.8-3.8c0.8,1.7,1.6,3.4,2.5,5.2c-0.7-0.3-1.5-0.4-2.4-0.4c-4,1.4-7.9,4.5-10,8.4
		c-0.3-0.4-0.5-0.9-0.8-1.4l-2.9-0.7c0.1-0.1-11.2,0.5-11.2,0.5l-1,1.6l0,0l0,0l0.1,0.1h0.1c2.1,1.1,3.4,3.5,3.4,5.8
		c-4.4-4.4-14.6-1.3-14.4-5.3l-2.1-0.9c-0.9,1.3-1.7,2.6-2.6,3.9c-0.3-2.3-1.6-3.8-4.9-2.2c-1.3,0.6-2.7,1.3-4,2.1
		c0.8-5.3-3.8-11.4-10.4-11.2c-7.7-2.9-17.6-0.4-22.6,6.2c-0.2-4.3,0-8.6,0.1-12.8c-4.4,4.3-8.9,8.6-13.8,12.4
		c1.5-5.4,3.3-10.7,6.3-15.5c-9.4-1.2-19.2,1.1-27,6.3c18.6-26.8,16.6-61.7,14.1-92.9C53.8,75.4,53.8,75.2,53.8,75.1z"/>
	<path class="st0" d="M132.8,99.3c-10.4,5.2-1.8,22,8.5,16.4C151.7,110.6,143.1,93.8,132.8,99.3z M140.4,105.2
		c-1,0.5-2.3,0.1-2.8-0.9c-0.5-1-0.1-2.3,0.9-2.8c1-0.5,2.3-0.1,2.8,0.9C141.8,103.5,141.4,104.7,140.4,105.2z"/>
</g>
</svg>
